PathFileType	4	(X/Y/Z)	C:\Users\°ÂÌØÂü\Desktop\20210112\bx_n_5_902-Unnamed.trc
DataRate	CameraRate	NumFrames	NumMarkers	Units	OrigDataRate	OrigDataStartFrame	OrigNumFrames
50.00	50.00	       4	0	mm	50.00	137	       545
Frame#	Time	
		

137	2.720	-723.84491	156.57036	221.96039	-953.18945	61.26077	1093.77795	-895.93915	260.54297	861.52203	-783.23285	-28.64682	797.76306	-781.37244	195.19086	788.90137	-866.50134	261.48294	726.79840	-866.69525	240.22438	622.16998	-818.64404	130.13588	562.62524	-849.57416	236.47388	560.60614	-774.84546	0.67699	522.91663	-787.46228	192.19077	534.68835	-866.40405	251.42914	480.85120	-795.77136	34.02254	172.28639	-675.05280	51.65100	164.79620	-648.09650	-68.01245	160.77498	-819.03625	56.88382	563.87207	-774.43536	229.68306	202.06638	-605.27252	-73.08790	156.38034	-882.62378	296.22037	144.70464				-600.95166	29.12294	167.09879	-548.94855	-21.03641	162.94139	-518.15704	-72.63106	143.06215	-677.76923	174.95300	163.23256	-595.14801	216.93961	173.22333	-622.91278	304.09744	159.45541	-528.17462	303.91663	146.31383	-134.32690	82.14262	1176.20251				-729.73956	62.78225	220.86189	-800.23767	183.07236	179.58852	-558.29810	251.67232	163.59540	-659.30408	297.01468	158.89854				-794.60657	206.10513	986.75665	-852.00269	-61.42157	464.50873	-765.01007	-25.46676	200.52969	-875.97729	-78.46404	140.94899	-870.90790	-99.12194	852.06085	-863.13123	-88.92209	736.91016	-842.22559	-54.43388	601.54236	-836.55505	-50.28469	552.82947	
138	2.740	-723.62292	156.53365	221.76485	-954.22351	61.09515	1093.56421	-895.79291	260.37009	861.67773	-782.89148	-28.80387	797.81616	-781.37054	195.22778	788.59595	-866.59607	261.17841	727.03528	-866.65521	240.14720	622.20868	-818.04852	130.08643	562.79517	-849.87976	236.55270	560.68481	-774.82422	0.38330	522.84937	-787.11737	192.47096	534.85718	-866.43225	251.34601	480.88199	-795.84735	34.05990	172.22141	-675.12518	51.78316	164.64903	-648.14008	-68.25307	160.66812	-818.80780	56.39655	563.57764	-774.34949	229.71790	201.90051	-605.42603	-73.20752	156.27650	-882.56763	296.16724	144.62521	-374.60965	234.45490	1058.17224	-601.00293	29.04413	167.04855	-549.04919	-21.21848	162.66188	-518.15704	-72.63106	143.06215	-677.87274	174.58580	162.43143	-595.03882	217.05455	173.42143	-623.19946	303.79929	159.12930	-528.23627	304.03925	146.34506	-137.33275	82.15180	1190.71045				-729.62878	62.51576	220.76846	-800.29413	182.48820	180.23022	-558.40588	251.68970	163.67627	-658.92334	297.22021	158.58177				-794.62219	205.67484	987.69238	-851.86298	-61.50770	464.47287	-765.06897	-25.43274	200.43706	-875.97729	-78.46404	140.94899	-870.49695	-99.57890	852.37305	-862.77954	-89.29861	737.01996	-841.97705	-54.82619	601.63159	-836.32458	-50.64939	552.88098	
139	2.760	-723.76904	156.88069	221.97777	-955.23920	60.52500	1092.88440	-895.79291	260.37009	861.67773	-782.44135	-29.14681	797.80756	-781.03485	194.82968	788.97986	-866.34418	260.85083	727.43823	-866.54266	240.01482	622.30109	-818.22174	130.32205	562.72229	-849.53241	236.41737	560.85681	-774.39545	-0.29483	522.73193	-787.01038	192.67755	534.45337	-866.23853	251.40488	481.02722	-795.77136	34.02254	172.28639	-675.22156	51.65121	164.91812	-648.26202	-68.25472	160.49103	-818.08435	56.31288	563.77368	-774.41455	230.06334	201.87589	-605.39777	-73.52898	156.27118	-882.55884	296.08118	144.59036	-376.29114	234.23907	1068.81104	-600.81372	29.09281	167.24164	-548.99475	-21.46452	162.73766	-518.20532	-72.62995	143.09338	-677.79224	174.66029	162.57617	-595.01440	217.22520	173.62357	-623.18274	303.86618	159.23775	-528.15265	304.00107	146.42075	-140.13812	82.00114	1205.85925				-730.03790	62.50878	221.24223	-800.32117	183.20619	179.52789	-558.16986	251.62599	163.55623	-659.06561	297.28381	158.07385				-794.47394	205.67694	989.64789	-851.66827	-61.64916	464.35971	-765.10968	-25.43878	200.34818	-875.96667	-78.41602	140.99751	-870.05579	-99.96808	852.81085	-862.57080	-89.45163	737.29962	-841.63641	-55.10224	601.47833	-835.97150	-51.03363	553.15588	
140	2.780	-723.59198	157.10800	222.04292	-956.21960	60.15615	1092.40320	-895.32617	259.46649	861.73669	-781.37378	-29.53475	798.11670	-780.93695	195.10446	788.61664	-866.19824	260.07034	727.33289	-866.44324	239.92465	622.49591	-816.99188	130.24431	562.93811	-849.28790	236.62994	560.78918	-773.84808	-0.56388	522.69495	-786.97052	192.72142	534.78345	-866.23853	251.40488	481.02722	-795.79425	34.12236	172.20425	-675.20966	51.37120	164.66342	-648.14008	-68.25307	160.66812	-818.11060	56.14610	563.87000	-774.34326	230.13412	201.96727	-605.30359	-73.44118	156.07854	-882.62158	296.14899	144.58987				-600.63129	29.01343	167.35638	-549.13660	-21.55642	162.48328	-518.24756	-72.79452	143.12039	-677.53064	174.66544	162.61812	-595.09650	217.20058	173.54257	-622.91724	303.98505	159.28406	-528.19525	303.94400	146.28542	-143.32889	81.86449	1220.95544	-791.18469	-36.45422	969.64349	-729.46008	62.48825	221.00699	-800.35144	183.35158	179.40668	-558.33612	251.71912	163.59631	-659.07788	297.22501	158.18205				-794.47394	205.42123	991.34857	-851.27802	-61.84992	464.57452	-765.11920	-25.57965	200.69434	-875.90863	-78.55433	141.14020	-870.37280	-100.50638	852.92938	-861.58337	-89.58456	737.45905	-840.98071	-54.87859	601.23712	-835.51300	-50.82558	552.81262	
